<svg aria-hidden="true" style="position:absolute;width:0;height:0" xmlns="http://www.w3.org/2000/svg" overflow="hidden"><defs><symbol id="icon-podcast" viewBox="0 0 32 32"><path d="M32 16c0-8.837-7.163-16-16-16S0 7.163 0 16c0 6.877 4.339 12.739 10.428 15.002L10 32h12l-.428-.998C27.661 28.739 32 22.877 32 16zm-16.788 3.838a2 2 0 1 1 1.576.001L16 18l-.788 1.838zm1.609.077a4 4 0 1 0-1.641-.002l-2.332 5.441A8.002 8.002 0 0 1 8 17.999c0-4.418 3.582-8.375 8-8.375s8 3.957 8 8.375a8.003 8.003 0 0 1-4.848 7.355l-2.331-5.439zm4.693 10.951l-2.31-5.39C23.155 24.14 26 20.403 26 16c0-5.523-4.477-10-10-10S6 10.477 6 16c0 4.402 2.845 8.14 6.796 9.476l-2.31 5.39C5.499 28.726 2.005 23.771 2.005 18 2.005 10.271 8.271 3.63 16 3.63S29.995 10.271 29.995 18c0 5.771-3.494 10.726-8.481 12.866z"/></symbol><symbol id="icon-feed" viewBox="0 0 32 32"><path d="M12 16a4 4 0 1 1 8 0 4 4 0 0 1-8 0zm8.761-8.796C23.881 8.896 26 12.201 26 16s-2.119 7.104-5.239 8.796C22.138 22.605 23 19.475 23 16s-.862-6.605-2.239-8.796zM9 16c0 3.475.862 6.605 2.239 8.796C8.119 23.104 6 19.799 6 16s2.119-7.104 5.239-8.796C9.862 9.395 9 12.525 9 16zm-6 0c0 5.372 1.7 10.193 4.395 13.491C2.948 26.649 0 21.669 0 16S2.948 5.351 7.395 2.509C4.7 5.807 3 10.628 3 16zM24.605 2.509C29.052 5.351 32 10.331 32 16s-2.948 10.649-7.395 13.491C27.3 26.193 29 21.372 29 16S27.3 5.807 24.605 2.509z"/></symbol><symbol id="icon-file-play" viewBox="0 0 32 32"><path d="M12 12l10 7-10 7V12z"/><path d="M28.681 7.159c-.694-.947-1.662-2.053-2.724-3.116s-2.169-2.03-3.116-2.724C21.229.137 20.448 0 20 0H4.5A2.503 2.503 0 0 0 2 2.5v27C2 30.878 3.122 32 4.5 32h23c1.378 0 2.5-1.122 2.5-2.5V10c0-.448-.137-1.23-1.319-2.841zm-4.138-1.702A27.334 27.334 0 0 1 26.811 8H22V3.189a27.334 27.334 0 0 1 2.543 2.268zM28 29.5c0 .271-.229.5-.5.5h-23a.507.507 0 0 1-.5-.5v-27c0-.271.229-.5.5-.5H20v7a1 1 0 0 0 1 1h7v19.5z"/></symbol></defs></svg>