<svg aria-hidden="true" style="position: absolute; width: 0; height: 0; overflow: hidden;" version="1.1" xmlns="http://www.w3.org/2000/svg">
	<defs>
		<symbol id="icon-podcast" viewBox="0 0 32 32">
			<path d="M32 16c0-8.837-7.163-16-16-16s-16 7.163-16 16c0 6.877 4.339 12.739 10.428 15.002l-0.428 0.998h12l-0.428-0.998c6.089-2.263 10.428-8.125 10.428-15.002zM15.212 19.838c-0.713-0.306-1.212-1.014-1.212-1.838 0-1.105 0.895-2 2-2s2 0.895 2 2c0 0.825-0.499 1.533-1.212 1.839l-0.788-1.839-0.788 1.838zM16.821 19.915c1.815-0.379 3.179-1.988 3.179-3.915 0-2.209-1.791-4-4-4s-4 1.791-4 4c0 1.928 1.364 3.535 3.18 3.913l-2.332 5.441c-2.851-1.223-4.848-4.056-4.848-7.355 0-4.418 3.582-8.375 8-8.375s8 3.957 8 8.375c0 3.299-1.997 6.131-4.848 7.355l-2.331-5.439zM21.514 30.866l-2.31-5.39c3.951-1.336 6.796-5.073 6.796-9.476 0-5.523-4.477-10-10-10s-10 4.477-10 10c0 4.402 2.845 8.14 6.796 9.476l-2.31 5.39c-4.987-2.14-8.481-7.095-8.481-12.866 0-7.729 6.266-14.37 13.995-14.37s13.995 6.641 13.995 14.37c0 5.771-3.494 10.726-8.481 12.866z"></path>
		</symbol>

		<symbol id="icon-feed" viewBox="0 0 32 32">
			<path d="M12 16c0-2.209 1.791-4 4-4s4 1.791 4 4c0 2.209-1.791 4-4 4s-4-1.791-4-4zM20.761 7.204c3.12 1.692 5.239 4.997 5.239 8.796s-2.119 7.104-5.239 8.796c1.377-2.191 2.239-5.321 2.239-8.796s-0.862-6.605-2.239-8.796zM9 16c0 3.475 0.862 6.605 2.239 8.796-3.12-1.692-5.239-4.997-5.239-8.796s2.119-7.104 5.239-8.796c-1.377 2.191-2.239 5.321-2.239 8.796zM3 16c0 5.372 1.7 10.193 4.395 13.491-4.447-2.842-7.395-7.822-7.395-13.491s2.948-10.649 7.395-13.491c-2.695 3.298-4.395 8.119-4.395 13.491zM24.605 2.509c4.447 2.842 7.395 7.822 7.395 13.491s-2.948 10.649-7.395 13.491c2.695-3.298 4.395-8.119 4.395-13.491s-1.7-10.193-4.395-13.491z"></path>
		</symbol>

		<symbol id="icon-file-play" viewBox="0 0 32 32">
			<path d="M12 12l10 7-10 7v-14z"></path>
			<path d="M28.681 7.159c-0.694-0.947-1.662-2.053-2.724-3.116s-2.169-2.030-3.116-2.724c-1.612-1.182-2.393-1.319-2.841-1.319h-15.5c-1.378 0-2.5 1.121-2.5 2.5v27c0 1.378 1.122 2.5 2.5 2.5h23c1.378 0 2.5-1.122 2.5-2.5v-19.5c0-0.448-0.137-1.23-1.319-2.841zM24.543 5.457c0.959 0.959 1.712 1.825 2.268 2.543h-4.811v-4.811c0.718 0.556 1.584 1.309 2.543 2.268zM28 29.5c0 0.271-0.229 0.5-0.5 0.5h-23c-0.271 0-0.5-0.229-0.5-0.5v-27c0-0.271 0.229-0.5 0.5-0.5 0 0 15.499-0 15.5 0v7c0 0.552 0.448 1 1 1h7v19.5z"></path>
		</symbol>
	</defs>
</svg>
